<?xml version="1.0" encoding="utf-8"?>
<!-- Generator: Adobe Illustrator 27.2.0, SVG Export Plug-In . SVG Version: 6.00 Build 0)  -->
<svg version="1.1" id="DHS_x5F_RGB_x5F_Hor_x5F_Blue_x5F_20Year"
	 xmlns="http://www.w3.org/2000/svg" xmlns:xlink="http://www.w3.org/1999/xlink" x="0px" y="0px" viewBox="0 0 1030 340"
	 style="enable-background:new 0 0 1030 340;" xml:space="preserve">
<style type="text/css">
	.st0{fill:#005288;}
	.st1{fill:#0078AE;}
	.st2{fill:#FFFFFF;}
	.st3{fill:#C41230;}
	.st4{fill:#C0C2C4;}
	.st5{fill:#5E9732;}
</style>
<g>
	<g>
		<path class="st0" d="M425.3,76.8V39.7h-14v-8.6h44.6v8.6h-14v85.4h14v8.6h-44.6v-8.6h14V86.9h-52.5v38.2H387v8.6h-45v-8.6h14.2
			V39.7H342v-8.6h45v8.6h-14.2v37.2H425.3z"/>
		<path class="st0" d="M498.2,60c22.1,0,39.3,16.6,39.3,37.8c0,21.2-17.3,37.8-39.3,37.8c-22.1,0-39.3-16.6-39.3-37.8
			S476.1,60,498.2,60z M498.2,128.7c13.7,0,21.7-11.5,21.7-30.8s-8-30.8-21.7-30.8c-13.5,0-21.7,11.5-21.7,30.8
			C476.5,117.2,484.7,128.7,498.2,128.7z"/>
		<path class="st0" d="M539.2,126.6h12.7V69.1h-12.7v-7h28.4v8.2c11-5.8,19.2-10.3,28.2-10.3c8.2,0,14.9,4.4,17.6,12
			c7.4-5.6,19.2-12,28.7-12c13.3,0,20.5,8.6,20.5,24v42.6h12.5v7H635v-7h12v-38c0-12.3-4.3-18.1-13.2-18.1c-5.3,0-12.3,3.3-18.7,7.7
			v48.5h12.5v7h-40.2v-7h12V90.9c0-12.2-1.7-20.4-12.8-20.4c-6.5,0-11,2.7-19,7.7v48.5h12.1v7h-40.5V126.6z"/>
		<path class="st0" d="M690.8,92.2c0,20.5,9.4,34.9,24.6,34.9c7.4,0,15.2-2.7,23.8-8.2l-1.2,7.7c-11.6,7.2-17.1,9.1-26.9,9.1
			c-24.3,0-37.5-19.9-37.5-39.9c0-21.7,12.8-35.8,32.5-35.8c17.8,0,29.1,11.5,31.8,32.2C738,92.2,690.8,92.2,690.8,92.2z
			 M721.2,85.2c-1.4-11.6-7-18.1-16.1-18.1c-9.4,0-13.3,6-14.4,18.1H721.2z"/>
		<path class="st0" d="M747.1,126.6h12.7V28h-12.7v-7h28.4v105.7h12.1v7h-40.5L747.1,126.6L747.1,126.6z"/>
		<path class="st0" d="M794.6,71.9c8.6-7.5,18.7-11.8,27.2-11.8c13.9,0,22.4,9.6,22.4,25.2v29.3c0,7.2,3.1,11.6,7.4,11.6
			c1.4,0,5.8-0.7,7.4-1v4.8c-5.3,3.8-10.6,5.8-15.6,5.8c-5.5,0-9.2-3.1-13-10.6c-8.6,6.3-14.7,10.6-20.9,10.6
			c-9.4,0-16.6-8.4-16.6-18.8c0-10.6,5.8-16.6,19.8-20l15.7-3.9v-9.6c0-8.4-2.6-14.2-12-14.2c-5.5,0-11.6,2.4-20.2,7.7L794.6,71.9z
			 M807.6,114.8c0,5.5,3.9,9.6,9.2,9.6c3.4,0,7.2-1.7,11.6-5.3V99.9C813.6,103.5,807.6,107.8,807.6,114.8z"/>
		<path class="st0" d="M860.1,126.6h13V69.1h-13v-7h28.7v8.1C897.3,64,905.8,60,915.4,60c11.3,0,19.7,7.2,19.7,20.9v45.7h12.7v7H908
			v-7h11.3V84.5c0-9.8-5.3-14.9-12.7-14.9c-5.3,0-11.8,2.7-17.8,7.5v49.5h11.8v7h-40.5L860.1,126.6L860.1,126.6z"/>
		<path class="st0" d="M988.9,21h28.4v105.7h12.7v7h-41.1c-24.8,0-40.9-14.4-40.9-37c0-20,14.5-36.6,31.8-36.6
			c7.2,0,14.7,3.1,21.7,9.1V28h-12.7L988.9,21L988.9,21z M1001.6,77.2c-5.3-5.3-11.3-8.1-16.8-8.1c-12,0-19.2,10.1-19.2,27.6
			c0,21.9,12.1,30,29.1,30h6.8V77.2z"/>
		<path class="st0" d="M346.5,227.4h8.6v13c6.8,8.2,13.5,11.8,20.7,11.8c9.6,0,17.1-7.2,17.1-16.4c0-17.3-23.8-20.7-37.7-34.6
			c-6.7-6.7-9.3-13.7-9.3-20.7c0-13.5,11.3-26.5,29.1-26.5c7.4,0,14,1.4,19.9,5.1v-5.5h8.6v27.9H395v-11.1
			c-4.3-5.5-10.8-8.7-17.8-8.7c-11.5,0-16.4,6.8-16.4,14.7c0,16.1,23.5,18.5,38.2,33.2c6.5,6.5,8.7,12.3,8.7,20.7
			c0,17.5-12.3,29.6-30.8,29.6c-7.9,0-14-2.4-21.7-7.2v7.5h-8.6L346.5,227.4L346.5,227.4z"/>
		<path class="st0" d="M434.2,216.8c0,20.5,9.4,34.9,24.7,34.9c7.4,0,15.2-2.7,23.8-8.2l-1.2,7.7c-11.6,7.2-17.1,9.1-26.9,9.1
			c-24.3,0-37.5-19.9-37.5-39.9c0-21.7,12.8-35.8,32.5-35.8c17.8,0,29.1,11.5,31.8,32.2L434.2,216.8L434.2,216.8z M464.7,209.8
			c-1.4-11.6-7-18.1-16.1-18.1c-9.4,0-13.4,6-14.4,18.1H464.7z"/>
		<path class="st0" d="M547.4,207.2h-5c-1.9-10.4-9.4-15.6-17.1-15.6c-11.5,0-19.2,8.4-19.2,26.7c0,21.1,8.1,32.4,22.9,32.4
			c11.6,0,18.5-7.9,20.2-7.9c1.4,0,2.4,3.1,2.4,4.3c0,2.9-11.8,13.2-27.9,13.2c-20,0-35.3-17.1-35.3-39.5
			c0-21.1,14.2-36.1,34.2-36.1c6,0,10.4,1,18.3,4.4l1.4-4.3h5L547.4,207.2L547.4,207.2z"/>
		<path class="st0" d="M553.2,186.7h28.6V236c0,9.3,5,14.7,13,14.7c4.8,0,11-2.6,17.5-7.4v-49.7h-12.7v-7H628v64.6h12.8v7h-28.6
			v-8.6c-8.9,7.5-17.3,10.6-25.7,10.6c-12.7,0-20.5-7.2-20.5-21.9v-44.7h-12.8V186.7z"/>
		<path class="st0" d="M644.4,251.2h12.8v-57.5h-12.8v-7H673v12h0.3c8.6-10.6,12.8-14,17.5-14c4.3,0,8.1,2.1,12.2,6.8
			c-1.4,7.2-3.6,13-6.5,17.6c-4.1-7.5-6.5-10.1-11.3-10.1c-4.6,0-8.2,3.1-12.2,8.6v43.7h12.8v7h-41.4L644.4,251.2L644.4,251.2z"/>
		<path class="st0" d="M710.9,251.2h12.5v-57.5h-12.5v-7h28.3v64.6h12.2v7h-40.4V251.2z M739.5,161.3c0,5.3-4.4,9.8-9.8,9.8
			c-5.3,0-9.8-4.4-9.8-9.8c0-5.3,4.4-9.8,9.8-9.8S739.5,156,739.5,161.3z"/>
		<path class="st0" d="M756.8,193.7l25.7-26.5v19.5h20v7h-20v41.4c0,11.3,3.1,16.6,9.6,16.6c6.8,0,10.3-5.5,12-5.5
			c1,0,1.7,1.4,1.7,2.2c0,1.9-6.3,11.8-18.8,11.8c-13,0-20.2-8.4-20.2-23.8v-42.8L756.8,193.7L756.8,193.7z"/>
		<path class="st0" d="M806.9,186.7h34.8v7h-9.1l17.1,45.9l17.8-45.9h-8.4v-7h24v7h-8.6l-42,106.3h-13.4l20.2-44.9l-23.1-61.5h-9.4
			L806.9,186.7L806.9,186.7z"/>
	</g>
	<g>
		<g>
			<g>
				<path class="st1" d="M93.9,332.6L80.5,328l1.2-3.4l2.3-0.7c7.4-2.1,10.2-2.9,10.9-5.2c0.6-1.8-0.2-3.3-2.1-3.9
					c-1-0.3-1.9-0.3-2.6,0.1c-0.7,0.4-1.3,1-1.6,2l-0.1,0.4l-3.8-1.3l0.1-0.4c0.7-1.9,1.9-3.4,3.6-4.1c1.7-0.8,3.6-0.8,5.6-0.1
					c4.1,1.4,6,4.9,4.7,8.6c-1.3,3.8-4.7,4.7-10.3,6.2c-0.3,0.1-0.6,0.2-0.8,0.2l7.5,2.6L93.9,332.6z"/>
				<path class="st1" d="M110.3,336.8c-0.8,0-1.6-0.1-2.4-0.3l0,0c-5.7-1.3-9.2-6.8-7.9-12.5c0.6-2.7,2.2-5,4.5-6.5
					c2.4-1.5,5.2-2,8-1.4c5.7,1.3,9.2,6.8,7.9,12.5C119.3,333.6,115.1,336.8,110.3,336.8z M110.2,319.9c-1.2,0-2.4,0.3-3.4,1
					c-1.4,0.9-2.4,2.3-2.8,4c-0.4,1.7-0.1,3.4,0.8,4.8c0.9,1.5,2.4,2.5,4.1,2.9c1.7,0.4,3.4,0.1,4.9-0.8c1.4-0.9,2.4-2.4,2.8-4
					c0.8-3.5-1.3-6.9-4.9-7.7l0,0C111.1,320,110.6,319.9,110.2,319.9z"/>
				<path class="st1" d="M139.1,332.3l-0.5,7.2l-4-0.3l0.5-7.2l-6.2-11.5l4.7,0.3l3.8,7.6l4.9-7l4.5,0.3L139.1,332.3z"/>
				<path class="st1" d="M149.9,340l-0.6-18.2l13.7-0.5l0.1,3.6l-9.7,0.3l0.1,3.7l8.6-0.3l0.1,3.6l-8.6,0.3l0.1,3.8l9.9-0.3l0.1,3.6
					L149.9,340z"/>
				<path class="st1" d="M182,337.3l-2.2-3.8l-7.6,1.1l-1.1,4.3l-4,0.6l5.2-19.2l3.7-0.5l10.3,17.1L182,337.3z M174.7,324.7
					l-1.6,6.2l4.8-0.7L174.7,324.7z"/>
				<path class="st1" d="M199.5,333.4l-5.2-4.7l-3.1,0.8l1.4,5.7l-3.9,1l-4.4-17.7l8.1-2c4.2-1,7.2,0.5,8.1,4.2l0,0.1
					c0.7,2.9-0.4,5-2.4,6.4l5.9,5.2L199.5,333.4z M196.7,321.8c-0.4-1.7-1.8-2.2-3.7-1.8l-3.9,1l1.3,5.1l3.9-1
					C196.3,324.6,197.1,323.3,196.7,321.8L196.7,321.8z"/>
				<path class="st1" d="M214.5,328.9c-2.6,0.9-5.5,1-8.3-0.1l1.3-3.5c2,0.7,3.9,0.9,5.9,0.2c1.5-0.6,2.3-1.5,1.9-2.5l0,0
					c-0.3-1-1.1-1.2-4.2-0.9c-3.8,0.4-6.3,0.2-7.6-3.2l0,0c-1.1-3.1,0.6-6.1,4.1-7.3c2.5-0.9,4.9-0.9,7.1-0.1l-0.9,3.5
					c-1.9-0.5-3.6-0.6-5.1-0.1s-2,1.5-1.7,2.3l0,0c0.4,1.1,1.3,1.2,4.5,0.9c3.8-0.3,6.2,0.2,7.3,3.2l0,0
					C220.1,324.8,218.2,327.6,214.5,328.9z"/>
			</g>
			<polygon class="st1" points="68.5,296.9 67.1,305.7 74.7,310.3 65.9,311.7 63.9,320.4 59.8,312.5 50.9,313.2 57.3,306.9 
				53.7,298.7 61.7,302.8 			"/>
			<polygon class="st1" points="21.5,261.4 17.8,268.1 22.6,274 15.1,272.5 11,278.9 10.1,271.3 2.8,269.4 9.7,266.2 9.2,258.6 
				14.4,264.2 			"/>
			<polygon class="st1" points="231.5,296.9 238.3,302.8 246.3,298.7 242.7,306.9 249.1,313.2 240.2,312.5 236.1,320.4 234.1,311.7 
				225.3,310.3 232.9,305.7 			"/>
			<polygon class="st1" points="278.5,261.4 285.6,264.2 290.8,258.6 290.3,266.2 297.2,269.4 289.9,271.3 289,278.9 284.9,272.5 
				277.4,274 282.2,268.1 			"/>
			<polygon class="st1" points="42.9,280.9 40.2,288.7 46.4,294.1 38.2,293.9 34.9,301.5 32.6,293.6 24.4,292.8 31.1,288.1 
				29.3,280.1 35.9,285.1 			"/>
			<polygon class="st1" points="257.1,280.9 264.1,285.1 270.7,280.1 268.9,288.1 275.6,292.8 267.4,293.6 265.1,301.5 261.8,293.9 
				253.6,294.1 259.8,288.7 			"/>
		</g>
	</g>
	<g>
		<ellipse class="st2" cx="149" cy="149" rx="149" ry="149"/>
		<g>
			<path class="st3" d="M239.5,95.5c-1.7,0.6-3.3,1-5,1.4c9.3,15.2,14.6,33,14.6,52.1c0,55.3-44.8,100.2-100.2,100.2
				c-55.3,0-100.2-44.8-100.2-100.2c0-19.9,5.8-38.5,15.9-54.1c-1.6-0.5-3.2-1.1-4.7-1.8c-10.2,16.2-16.1,35.4-16.1,55.9
				c0,58,47.1,105.1,105.1,105.1S254.1,207,254.1,149C254.1,129.4,248.8,111.1,239.5,95.5z"/>
			<path class="st3" d="M90.8,67.5c16.4-11.7,36.5-18.7,58.2-18.7c24.3,0,46.5,8.6,63.8,23c2-0.6,3.9-1.1,5.8-1.6
				c-18.5-16.4-42.9-26.4-69.6-26.4c-23.9,0-46,8-63.7,21.5c0.8,0.3,1.7,0.6,2.5,0.9C88.9,66.7,89.9,67.1,90.8,67.5z"/>
		</g>
		<path class="st4" d="M149,0C66.7,0,0,66.7,0,149s66.7,149,149,149c82.3,0,149-66.7,149-149S231.3,0,149,0z M149,288.7
			C71.8,288.7,9.3,226.2,9.3,149S71.8,9.3,149,9.3c77.2,0,139.7,62.6,139.7,139.7C288.7,226.2,226.2,288.7,149,288.7z"/>
		<g>
			<path class="st0" d="M113.1,119.1c-2.1-1.1-4-2.3-6-4.2c-6.4-5.8-7.9-12-6-19c1.1-4.2,2.8-6.3,2.3-10.7c-0.3-2.5-2.1-4.5-3.9-6.2
				c-4.3-4.1-9.3-6.6-16.8-9.2c-4.6-1.5-18.1-5.7-24-11.1c-1.3,3.9,1.5,9.2,4.9,9.9c-3,0.3-5.6,1.9-6.8,3.6
				c2.3,2.6,6.8,5.4,10.6,5.5c-1.7,1.2-3.8,3.6-4.6,5c3.3,1.7,8.4,3.2,12.4,2.9c-1.7,1.3-3.1,3.1-4.1,4.6c2.7,1.2,7.9,3,13,3.4
				c-1.8,0.9-4.5,4.1-5.8,6c2.8,1.3,8.9,2,12.7,2.4c-2.7,1.4-5.5,4.3-7.1,6.8c2.7,1.3,7.9,2.8,12.1,2.6c-2.1,2-3.4,4.4-4.2,6.7
				c3.2,0.7,6.5,0.7,10.4,0.1c-2.4,3-3.3,6.9-3.6,9.7c3.2-0.1,7.4-0.8,10.3-2.6c-0.6,2.4-0.5,5.7,0.5,8c1.2-0.3,2.7-0.8,4.2-1.6
				C113.4,127.5,113.2,122.9,113.1,119.1z"/>
			<path class="st0" d="M241.4,66.1c-5.9,5.4-15.4,6.8-25.4,10.1c-7.5,2.5-12.2,3.9-18.9,9.3c-1.9,1.5-3.7,3.8-3.5,7.6
				c0.2,4.3,0.9,6.1,1,12.1c0.1,4.3-1.4,7.7-3.2,9.7c-1.9,2.1-4.4,4-6.6,5.2c-0.1,3.6-0.3,7.3-0.5,11.6c1.6,0.8,3.6,1.6,4.8,1.9
				c1-2.3,1.2-5.6,0.5-8c3,1.8,7.2,2.5,10.3,2.6c-0.3-2.8-1.3-6.8-3.6-9.7c3.9,0.5,7.2,0.5,10.4-0.1c-0.8-2.3-2.2-4.8-4.2-6.7
				c4.2,0.1,9.4-1.3,12.1-2.6c-1.6-2.6-4.4-5.4-7.1-6.8c3.8-0.4,10-1.1,12.8-2.4c-1.4-1.9-4.2-5.1-6-6c5-0.4,10.2-2.2,13-3.4
				c-1-1.6-2.4-3.3-4.1-4.6c4.7-0.3,9.2-1.2,12.4-2.9c-0.7-1.4-2.8-3.9-4.6-5C241.2,75,241.4,70,241.4,66.1z"/>
			<path class="st0" d="M199.2,76.7C185,66.8,167.7,61,149,61c-17,0-32.9,4.8-46.3,13.2c3.5,2.7,5.6,5.6,6.1,8.6
				c0.4,2.6,0.8,5.8-0.8,10.4c-1.6,4.9-2.5,9.9,1.1,15c3.6,5.1,8.2,7.2,12.1,8l0,0c5-0.9,10.6-1.6,16.2-2l0,0c0.7-2.4,2.9-4.4,5-6.1
				c3.1-2.4,2.4-4.6,1.7-6.2c-0.6-1.3-1.7-2.3-3.3-3.2c-1.4-0.7-6.6-1.3-6.4,2c-0.8-1.2-1.5-2.8-1-4.9c0.7-2.9,5.4-3.6,6.6-3.5
				c-0.9-0.8-0.3-2,1.7-2.6c2.5-0.7,4.9-0.8,7.2-0.7c4.7,0.1,5.5,1.3,7.9,3.4c2.9,2.6,6.7,3.5,8.2,1.9c-1.1,2.5-4.5,3.8-6.7,3.4
				c1.1,3.4,1.5,6.4,1.8,9.9c0.2,1.6,0.5,4.3,1,6.6c6.3,0.5,12.7,1.4,18.2,2.5l0,0c2.3-0.7,4.7-2,6.8-4.5c2-2.3,3.9-5.3,3.1-12.8
				c-0.2-2.1-1.3-7.5-1.1-10C188.3,83.5,192.5,79.7,199.2,76.7z"/>
			<path class="st0" d="M140.7,92.4c0.9,0.7,1.4,0.7,1.7,0.7c0,0.2,0.3,0.4,0.4,0.4c0.2,0.2,0.3,0.3,0.3,0.5
				c0.4-0.2,1.4-0.6,2.4-0.9c1-0.3,2.3-0.7,2.3-0.7C143.6,91.5,143,92.7,140.7,92.4z"/>
		</g>
		<g>
			<g>
				<g>
					<path class="st2" d="M149,193.3h-0.9c-0.5-3-2.6-4.8-5.8-5.8c-2.4-0.7-5.8-1.9-13.2-4.1c-8.6-2.6-12.9-9.5-13.5-18.2
						c-0.8-12.2-2.1-33.8-2.5-47.5c9.7-2.4,24-4.2,36-4.2c12,0,26.3,1.9,36,4.2c-0.5,13.7-1.7,35.2-2.5,47.5
						c-0.6,8.7-5,15.6-13.5,18.2c-7.4,2.3-10.9,3.4-13.2,4.1c-3.1,1-5.3,2.8-5.8,5.8H149"/>
				</g>
				<path class="st1" d="M146.5,162l-1.8-0.9l-1.1-3l-2.6-1.1l-2.9-2.6l-1.7,1.9l-2.6,0.6l-1.4,2.2l-2.1,2.2l-2.8,1.5l-1.9,3.3
					l-1.1,1.5l-1.9,1.5l-1-1.1l-1.1,1.1l-1.4,2.6c-0.7-1.9-1.2-3.4-1.4-6.6c-0.4-5.8-0.8-13-1.2-20.4c9.5-2,21.6-3.4,31.4-3.5v22.4
					C147.5,163.3,147,163.1,146.5,162z"/>
				<path class="st5" d="M147.9,172.8h-28.2c0.4,0.9,0.9,1.7,1.4,2.5c2,2.8,4.9,5,8.6,6.1c5,1.5,8.2,2.5,10.5,3.3l2.8,0.9
					c2.3,0.7,3.8,1.7,4.9,2.8L147.9,172.8L147.9,172.8z"/>
				<path class="st0" d="M177.7,161.9c0.8-0.6,1.7-1.3,2.8-1.8c0.2-2.6,0.3-5.4,0.5-8.4c-0.3,0.2-0.6,0.5-1,0.8
					c-1.3,1.1-3,2.4-6,2.4c-2.8,0-4.6-1.1-6-2c-1.2-0.7-2.1-1.3-3.5-1.3c-1.5,0-2.8,0.8-4.2,1.6c-1.5,0.9-3.2,1.9-5.3,1.9
					c-2.1,0-3.7-0.6-4.9-1.3v7.9c0.3,0.2,0.6,0.3,0.8,0.5c1.3,0.8,2.4,1.5,4.1,1.5c1.1,0,2.1-0.6,3.4-1.4c1.7-1,3.6-2.1,6.1-2.1
					c2.4,0,4,1,5.4,1.8c1.3,0.8,2.3,1.5,4.1,1.5C175.7,163.5,176.6,162.8,177.7,161.9z"/>
				<path class="st0" d="M155,180c-2.1,0-3.7-0.6-4.9-1.3v9.7c1.1-1.1,2.7-2.1,4.9-2.8l2.8-0.9c2.3-0.7,5.5-1.7,10.5-3.3
					c1.5-0.4,2.8-1,4-1.8c-1.8-0.3-3.1-1.1-4.2-1.8c-1.2-0.7-2.1-1.3-3.5-1.3c-1.5,0-2.8,0.8-4.2,1.6C158.8,178.9,157.1,180,155,180
					z"/>
				<path class="st1" d="M177.7,149.7c0.9-0.8,2-1.6,3.6-2c0.1-1,0.1-2,0.2-3.1c-9.5-2-21.6-3.4-31.4-3.5v8.5
					c0.3,0.2,0.6,0.3,0.8,0.5c1.3,0.8,2.4,1.5,4.1,1.5c1.1,0,2.1-0.6,3.4-1.4c1.7-1,3.6-2.1,6.1-2.1c2.4,0,4,1,5.4,1.8
					c1.3,0.8,2.3,1.4,4.1,1.4C175.7,151.3,176.6,150.6,177.7,149.7z"/>
				<path class="st1" d="M150.1,166.1v8.3c0.3,0.2,0.6,0.3,0.8,0.5c1.3,0.8,2.4,1.5,4.1,1.5c1.1,0,2.1-0.6,3.4-1.4
					c1.7-1,3.6-2.1,6.1-2.1c2.4,0,4,1,5.4,1.8c1.3,0.8,2.3,1.4,4.1,1.4c1.3,0,2.2-0.5,3.1-1.1c1.8-2.7,2.9-6,3.1-9.9
					c0-0.2,0-0.3,0-0.5c-0.1,0.1-0.2,0.1-0.2,0.2c-1.3,1.1-3,2.5-6,2.5c-2.8,0-4.6-1.1-6-2c-1.2-0.7-2.1-1.3-3.5-1.3
					c-1.5,0-2.8,0.8-4.2,1.6c-1.5,0.9-3.2,1.9-5.3,1.9C152.9,167.4,151.3,166.8,150.1,166.1z"/>
			</g>
			<g>
				<path class="st0" d="M116.4,142.5c-0.5-8.2-0.8-16.6-1.1-23.1c10-2.3,23.3-3.8,33.7-3.8c10.4,0,23.7,1.5,33.7,3.8
					c-0.2,6.6-0.6,14.9-1.1,23.1c-9.4-2-21.9-3.5-32.6-3.5C138.3,139,125.8,140.5,116.4,142.5z"/>
				<polygon class="st2" points="123,124.8 123.3,123.1 121.7,122.3 123.5,122.1 123.7,120.3 124.4,122 126.2,121.6 124.8,122.8 
					125.7,124.4 124.2,123.5 				"/>
				<polygon class="st2" points="134,123.4 132.4,122.4 131.2,123.7 131.6,121.9 130,121.1 131.8,121 132.1,119.2 132.7,120.9 
					134.5,120.6 133.1,121.8 				"/>
				<polygon class="st2" points="142.2,122.7 140.7,121.7 139.4,122.9 139.9,121.2 138.4,120.3 140.2,120.3 140.5,118.5 
					141.1,120.2 142.9,120 141.5,121.1 				"/>
				<polygon class="st2" points="150.4,122.6 149,121.4 147.6,122.6 148.3,120.9 146.8,119.9 148.6,120 149,118.2 149.5,120 
					151.3,119.9 149.8,120.9 				"/>
				<polygon class="st2" points="173.9,123.5 172.3,124.4 173.2,122.8 171.9,121.6 173.7,122 174.4,120.3 174.6,122.1 176.4,122.3 
					174.7,123.1 175.1,124.8 				"/>
				<polygon class="st2" points="164.9,121.8 163.5,120.6 165.3,120.9 166,119.2 166.3,121 168,121.1 166.4,121.9 166.9,123.7 
					165.6,122.4 164.1,123.4 				"/>
				<polygon class="st2" points="156.6,121.1 155.2,120 157,120.2 157.5,118.5 157.9,120.3 159.7,120.3 158.1,121.2 158.7,122.9 
					157.3,121.7 155.9,122.8 				"/>
				<polygon class="st2" points="124.2,138.2 124.6,136.4 122.9,135.6 124.7,135.5 124.9,133.7 125.6,135.3 127.4,135 126,136.2 
					126.9,137.8 125.4,136.8 				"/>
				<polygon class="st2" points="134.8,136.8 133.3,135.8 132.1,137.1 132.5,135.4 130.9,134.5 132.7,134.4 133,132.6 133.7,134.3 
					135.4,134.1 134,135.2 				"/>
				<polygon class="st2" points="142.8,136.3 141.3,135.2 140,136.4 140.5,134.7 139,133.8 140.8,133.8 141.1,132 141.7,133.7 
					143.5,133.5 142,134.6 				"/>
				<polygon class="st2" points="150.7,136.1 149.3,135 147.9,136.1 148.6,134.4 147.1,133.4 148.8,133.5 149.3,131.7 149.8,133.5 
					151.6,133.4 150.1,134.4 				"/>
				<polygon class="st2" points="173.2,136.9 171.7,137.9 172.6,136.3 171.3,135.1 173,135.4 173.7,133.8 173.9,135.6 175.7,135.8 
					174.1,136.5 174.5,138.3 				"/>
				<polygon class="st2" points="164.6,135.3 163.2,134.1 165,134.4 165.6,132.7 165.9,134.5 167.7,134.6 166.1,135.4 166.5,137.2 
					165.3,135.9 163.8,136.9 				"/>
				<polygon class="st2" points="156.6,134.6 155.1,133.5 156.9,133.7 157.5,132 157.9,133.8 159.7,133.8 158.1,134.7 158.6,136.5 
					157.3,135.2 155.8,136.3 				"/>
				<polygon class="st2" points="128.1,130.3 128.5,128.5 126.9,127.7 128.7,127.6 128.9,125.8 129.6,127.5 131.4,127.2 130,128.3 
					130.9,130 129.3,129 				"/>
				<polygon class="st2" points="120.2,131.5 120.6,129.8 118.9,129 120.7,128.8 120.9,127 121.6,128.7 123.4,128.3 122.1,129.5 
					123,131.1 121.4,130.2 				"/>
				<polygon class="st2" points="138.8,129.2 137.3,128.2 136,129.4 136.5,127.7 134.9,126.8 136.7,126.7 137,125 137.6,126.7 
					139.4,126.4 138,127.5 				"/>
				<polygon class="st2" points="146.7,128.8 145.2,127.7 143.9,128.9 144.5,127.2 142.9,126.2 144.7,126.3 145.1,124.5 
					145.6,126.2 147.4,126.1 146,127.1 				"/>
				<polygon class="st2" points="154.6,128.9 153.2,127.7 151.8,128.8 152.5,127.1 151,126.1 152.8,126.2 153.3,124.5 153.7,126.3 
					155.5,126.2 154,127.2 				"/>
				<polygon class="st2" points="177,130.2 175.5,131.1 176.4,129.6 175.1,128.3 176.8,128.7 177.6,127.1 177.7,128.9 179.5,129.1 
					177.9,129.8 178.2,131.6 				"/>
				<polygon class="st2" points="168.4,128.4 167,127.2 168.8,127.5 169.5,125.9 169.7,127.7 171.5,127.8 169.9,128.6 170.3,130.4 
					169.1,129 167.5,130 				"/>
				<polygon class="st2" points="160.4,127.6 159,126.5 160.8,126.7 161.4,125 161.7,126.8 163.5,126.8 161.9,127.7 162.4,129.5 
					161.2,128.2 159.7,129.2 				"/>
			</g>
		</g>
		<path class="st0" d="M243.7,161.2l-7.3,2.2l1.6,0.7l-2.6,1.6c0.3-1.5,0.5-3,0.7-4.5l4-3.3l0.1,1.8l4.5-6.1l-6.9,3.2l1.7,0.5
			l-3.2,2.7c0.2-1.8,0.4-3.7,0.5-5.6l3.9-4.4l0.3,1.7l3.6-6.7l-6.4,4.1l1.8,0.2l-3.1,3.4c0-1.2,0.1-2.3,0.1-3.5
			c0-8.8-1.3-17.3-3.7-25.3c-4,0.4-8-0.9-9.9-1.3c5.1,3,6.9,6.2,7.6,10c-4.1,0.9-9.5-0.4-12.5-2.8c2.9,2.6,4.8,6.6,4.9,10.7
			c-4.2,0.2-8.1-1.8-11-4.6c1.8,2,4.2,7.2,3.6,10.9c-3.5-0.4-7.7-2.7-9.9-5.4c1.9,4.1,2.8,7.4,2.5,11.1c-3.5-0.7-6.1-1.6-9.3-4.6
			c1.5,3.8,2.1,7.5,1.7,10.6c-4-1.4-6.7-3-9-6.8c1.2,3.3,2,7.8,1.2,10.3c-3.4-1-5.7-3.1-7.4-6.6c1.8,3.7,1.5,8,0.9,10.2
			c-1.4-0.3-3.3-1.3-4.3-2.4c0,0.7-0.1,1.3-0.1,2c-0.2,2.5-0.7,4.9-1.5,7c0.3,0.3,0.9,1.1,1,1.1c1.8,1.9,4.3,3.8,6.2,4.4
			c-0.8,0.1-2,0.8-3.1,1c1.3,1.5,3.9,1.8,5.5,3.4c-1.3,0.1-1.6,1.1-3.1,0.9c2.9,2.2,5.6,2.3,7.1,2.5c0.6,0.1,2.6,0.3,3.8,0.1
			c1.8-0.3,3.6,0.6,4.3,1c1.1,0.6,1,2.1,0.8,2.9c-0.1,0.5-0.3,1-1.1,1.4c-0.5,0.1-0.8,0.2-0.3-0.2c0.4-0.3,0.8-2.2-0.2-2.9
			c-0.7-0.5-1.7-1-2.9-0.9c-1.3,0.1-3.3,0.2-4.3,0.1c-0.9-0.1-1.4,1.1-1.6,1.6c-0.3,1.2-0.7,2.6-2.4,1.9c-2.1-1.2-5-1.1-8.4-2.5
			c0.5,1,0.3,1.9,0.8,3.1c-3-0.7-3.8-2.3-6.7-3.3c0.5,1.1,0.3,1.9,1,2.9c-2.4-0.4-4.7-2.6-8.1-3.5c-0.1,0-0.2,0.1-0.3,0.1
			c-1.2,0.4-2.3,0.7-3.4,1c2.4,2.7,4.4,6,5.3,10.1c0,0-1.7,0-4.2-0.8c0.7,2.2,1.2,4.6,1.2,7.1c0,0-1.9-0.3-4.5-2
			c0.2,2.4,0.1,4.9-0.3,7.4c0,0-2.2-0.9-4.8-3.5c-0.3,2.5-0.9,5-2,7.4c0,0-2-1.4-4-4.5c-0.8,2.5-2,4.9-3.7,7.2c0,0-2.2-2.3-3.7-6.9
			c-2,3-3.8,4.2-3.8,4.2c-1.1-2.5-1.7-5-2-7.4c-2.6,2.6-4.8,3.5-4.8,3.5c-0.5-2.6-0.6-5-0.4-7.4c-2.6,1.6-4.5,2-4.5,2
			c0-2.5,0.5-4.9,1.2-7.1c-2.5,0.9-4.2,0.8-4.2,0.8c0.9-4.1,3.6-8.3,5.4-10.2l0,0c-0.9-0.3-1.8-0.6-2.9-0.9c-0.1,0-0.2-0.1-0.3-0.1
			c-3.4,0.9-5.6,3.1-8.1,3.5c0.6-1,0.5-1.8,1-2.9c-2.9,1-3.6,2.6-6.7,3.3c0.5-1.2,0.3-2.1,0.8-3.1c-2.8,1.4-6.6,2.3-8.4,2.7
			c-1.9,0.4-2-2.4-2.6-3c-0.3-0.3-1.8-0.4-2.4-0.3c-0.9,0.2-2.8,0.1-4.1,0c-1.4,0-2.3,0.4-3,0.9c-1,0.7-0.5,2.7-0.1,3
			c0.5,0.3,0.2,0.3-0.3,0.2c-0.8-0.4-1-1-1.1-1.4c-0.2-0.8-0.3-2.2,0.8-2.9c0.7-0.4,2.5-1.3,4.3-1c1.2,0.2,3.2,0,3.8-0.1
			c0.6-0.1,5-0.9,7.9-3.1c-1.5,0.2-1.8-0.7-3.1-0.9c1.6-1.6,4.2-2,5.5-3.4c-1.2-0.1-2.2-1-3-1.2c2.6-1.4,4.3-2.3,6.1-4.2
			c0,0,0.7-0.8,1-1.1c-0.8-2.2-1.3-4.5-1.5-7c0-0.6-0.1-1.2-0.1-1.9c-0.6,0.7-1.9,1.4-4,2.1c-1-2.4-0.5-6.8,0.7-10.2
			c-1.8,3.5-3.8,5.8-7.2,6.8c-0.8-2.6-0.3-7,0.9-10.4c-2.3,3.8-4.7,5.7-8.7,7.2c-0.3-3.1,0-7.2,1.5-11c-3.1,3-5.8,4-9.3,4.6
			c-0.2-3.7,0.7-7,2.5-11.1c-2.2,2.8-6.9,4.6-10.4,5c0.3-3.2,2.5-7.6,3.8-10.1c-3.3,2.4-6.8,4.1-10.7,4.3c0.5-3.6,2.1-7.6,4.9-10.7
			c-3.3,2.4-8.3,3.8-12.1,3.2c0.9-4,3.4-7.9,6.7-9.9c-1.9,0.4-5.4,1.2-9.4,0.8c-2.4,7.9-3.6,16.2-3.7,24.9c-2-1.6-3.4-2-4.8-3.3
			c0.3,1.9,0.5,2.9,0.7,5.2c0.4,4.2,1.9,6.5,4.6,8c0.1,1.2,0.3,2.4,0.5,3.5c-1.9-1.2-4.5-2-8-2c2.1,6.8,5.1,7.3,9.1,7.9
			c0.1,0.6,0.3,1.2,0.4,1.8c-2.1-0.5-4.7-0.6-7.6,0.2c2,3.1,4.8,5,9.2,5.7c0,0,0,0,0,0.1c-2.7-0.2-5.7,0.2-8.1,1.4
			c3.4,2.9,6.7,4,9.8,3.7c0.2,0.4,0.3,0.8,0.5,1.2c-2.5,0.7-4.7,2-5.9,3.2c2.6,0.8,5.3,1.3,7.8,1c0,0.1,0.1,0.1,0.1,0.2
			c-1.4,1.1-2.7,2.9-3.4,5.6c1.9-0.5,3.8-0.6,5.7-1.2c0.4,0.7,0.8,1.4,1.2,2.1c-1,1.9-1.4,4.3-0.8,7c1.6-0.4,2.9-1,4-1.8
			c0.4,0.6,0.8,1.1,1.2,1.7c-0.4,3.1,0.3,6.2,2.1,8.2c0.7-0.8,1.3-1.6,1.8-2.4c4-6.1,1.6-10.4,1.7-14.4c0-0.1,0.1-0.2,0.1-0.3
			c0.3,4.7,4.4,9.3-0.4,15c-0.1,0.1-0.2,0.2-0.3,0.3c16.2,18.8,40.1,30.6,66.8,30.6c37.9,0,70.2-23.9,82.6-57.5l4-1.7l-0.3,1.7
			l5.8-5l-7.5,1.5l1.6,0.8l-3.1,1.3c0.5-1.5,1-3.1,1.5-4.7l4.4-2.4l-0.1,1.8l5.3-5.5l-7.3,2.2l1.6,0.7l-3.5,1.9
			c0.5-1.7,0.9-3.5,1.3-5.2l3.3-2.1l-0.1,1.8L243.7,161.2z"/>
		<path class="st2" d="M102.6,193.3c7.2,5.4,11.2,12.9,12.3,18.9c-0.9-0.7-2.6-1.3-3.6-1.1c-0.9-6.4-4.3-11.5-9.5-15.7
			C102,194.4,102.3,193.7,102.6,193.3z"/>
		<g>
			<path class="st2" d="M97.1,198.9c1.7,0.7,2.6,0.4,3-0.2c0.9-1.3,0.5-3-0.1-3.3c0.1,0.5,0.1,1.1,0,1.7c-0.1,0.5-0.3,1.3-1.3,1.2
				c-0.5-0.1-1.4-0.3-2-0.7c-0.4-0.3-0.4-0.9-0.2-1.5c0.1-0.3,0.2-0.7,0.6-1c-0.6,0.1-0.9,0.4-1.4,0.8c-0.5,0.4-1.1,0.4-1.5,0
				c-0.5-0.5-0.8-0.9-0.9-1.3c-0.4-0.9,0.8-1.6,1.5-2c-1.2,0-1.4,0.5-2.4,0.3c-1-0.2-1.2-1.7-1.2-2.2c0-0.4,0.5-0.7,1-0.9
				c0.5-0.1,1.2-0.1,1.5,0c0-0.2-0.1-0.5-0.1-0.8c-1-0.2-2.9,0.1-3.2,0.6c-0.5,0.7-0.3,1,0,2.3c0.4,1.2,0.6,1.6,1.4,1.7
				c0.2,0,0.6,0.1,1.1-0.1c-0.2,0.2-0.4,0.3-0.5,0.6c-0.1,0.3-0.3,0.8,0.6,1.9c0.8,1,1.6,1.3,2.3,1c0.4-0.2,0.5-0.4,0.7-0.6
				c-0.1,0.3-0.2,0.5-0.3,0.8C95.5,198.2,96.2,198.5,97.1,198.9z"/>
			<g>
				<path class="st2" d="M95.9,191.4c0.5-0.6,1.7-0.7,2.3-0.3c-0.5,0.9-0.5,2.3-0.2,3C96.3,193.9,96,192.3,95.9,191.4z"/>
				<path class="st2" d="M98.5,191.3c1-0.1,1.4-0.6,1.5-1c0.2-0.5,0.7-0.8,0.7,0s0,1-0.4,1.3C100,191.7,99.3,191.8,98.5,191.3z"/>
				<path class="st2" d="M99,192.9c-0.1,0.5-0.3,1-0.6,1.5c-0.3,0.4-0.6,0.6-0.9,0.8c0.5,0.3,1.1,0.5,1.6,0.5c0.5,0,0.6-0.1,0.5-0.3
					C99.6,194.5,99.3,193.3,99,192.9z"/>
			</g>
		</g>
		<g>
			<path class="st2" d="M199,190.5c0.5,0.8,0.5,2.3,0.3,3c1.7-0.3,2-1.9,2.1-2.7C200.9,190.2,199.7,190.1,199,190.5z"/>
			<path class="st2" d="M198.7,190.7c-1-0.1-1.4-0.6-1.5-1c-0.2-0.5-0.7-0.8-0.7,0c0,0.7,0,1,0.4,1.3
				C197.2,191.1,198,191.1,198.7,190.7z"/>
			<path class="st2" d="M198.8,193.8c-0.3-0.5-0.5-1-0.6-1.5c-0.2,0.4-0.5,1.6-0.7,2.6c0,0.2,0,0.3,0.5,0.3c0.5,0,1.2-0.2,1.6-0.5
				C199.4,194.4,199.1,194.2,198.8,193.8z"/>
			<g>
				<path class="st2" d="M228.3,166.9l1.7,0.5l-25.8,20.4l0,0l-0.6,0.5c0,0-0.1,0-0.1,0c0,0.3,0,0.6,0,0.8c0.4,0,0.9,0,1.3,0.1
					c0.6,0.1,1,0.5,1,0.9c0,0.5-0.3,2.1-1.3,2.2c-1,0.1-1.2-0.3-2.4-0.4c0.7,0.4,1.9,1.1,1.4,2c-0.2,0.4-0.5,0.7-1,1.3
					c-0.4,0.4-1.1,0.3-1.5,0c-0.5-0.4-0.8-0.7-1.4-0.8c0.3,0.3,0.5,0.7,0.6,1c0.2,0.6,0.2,1.3-0.2,1.5c-0.6,0.4-1.5,0.6-2,0.6
					c-0.9,0.1-1.2-0.8-1.3-1.3c-0.1-0.6-0.1-1.2,0-1.7c-0.6,0.3-1.1,2-0.2,3.3c0.4,0.6,1.3,0.9,3,0.3c0.9-0.3,1.6-0.7,1.5-1.6
					c0-0.3-0.2-0.6-0.3-0.8c0.2,0.2,0.3,0.4,0.7,0.6c0.7,0.4,1.4,0,2.3-0.9c0.9-1.1,0.8-1.6,0.6-1.9c-0.1-0.3-0.3-0.4-0.5-0.6
					c0.5,0.2,0.8,0.1,1.1,0.1c0.8-0.1,1-0.5,1.4-1.7c0.4-1.2,0.5-1.5,0.1-2.3c-0.2-0.3-0.8-0.5-1.5-0.7l25.6-20.2l0.1,1.8l4.6-6.1
					L228.3,166.9z"/>
				<path class="st2" d="M214.5,173.1l18.2-23l0.5,1.7l3.1-7l-6.1,4.6l1.8,0.1l-16.5,20.9c-1.3,2-2.7,4-3.9,6l0,0
					C212.5,175.4,213.5,174.3,214.5,173.1z"/>
				<path class="st2" d="M212.4,180c1.5-1.2,3.1-2.5,4.7-3.7l15.1-14l0.2,1.8l4.1-6.4l-6.7,3.6l1.7,0.3l-15.2,14.1
					C215,177.1,213.6,178.6,212.4,180z"/>
				<path class="st2" d="M229.2,176.7l-21.3,10.7c-0.4,0.3-0.7,0.5-0.9,0.7c0.2,0.1,0.3,0.3,0.4,0.4c0,0.1,0.1,0.1,0.1,0.2
					l22.1-11.1l-0.3,1.8l5.7-5l-7.5,1.6L229.2,176.7z"/>
				<path class="st2" d="M197,199.3c-0.3-0.1-0.6-0.3-0.8-0.5l-3.8,7.9l0,0l-1.4,0.5l-4.5,8.7l2.2-0.7l0.8,2.1l4.3-8.8l-0.5-1.4
					L197,199.3z"/>
				<path class="st2" d="M211.8,184.2c1.5-0.7,3.1-1.6,4.9-2.4l14.2-9.3l-0.1,1.8l5.1-5.6l-7.2,2.4l1.7,0.6l-15.4,10.1
					C213.8,182.7,212.8,183.5,211.8,184.2z"/>
				<path class="st2" d="M195.2,197.2c-0.1-0.4-0.1-0.9-0.1-1.3l-5.1,5.5l-1.5,0.1l-0.1,0.1l0,0l-7,7l0.3,0l0,0l0.1,0l1.7-0.1
					l0.3,1.7l5.8-7.7l1.1-0.2L195.2,197.2z"/>
				<path class="st2" d="M204.6,186.2c0.6-0.5,1.5-1.2,2.6-2l24.9-27.2l0.3,1.7l3.6-6.7l-6.4,4.1l1.8,0.2l-26.1,28.5
					C205,185.3,204.8,185.7,204.6,186.2z"/>
				<path class="st2" d="M182.3,204.8l9.3-6.5c1.1-1.2,2.2-2.4,2.6-2.9l-11.6,7.7l0,0l-1.4-0.3l-0.8,0.5l-7.4,4.6l2.1,0.4l0.3,1.6
					l6-5.2L182.3,204.8z"/>
				<path class="st2" d="M174.6,205.6l3.7-2.3l3.5-2.4l1.2,0.2c0,0,8.4-5.2,10.5-6.6c0.1-0.1,0.2-0.1,0.2-0.1l0,0c0,0,0,0,0.1,0
					l-11.1,5.5l-1.4-0.4l-8.8,4.2l2,0.7L174.6,205.6z"/>
			</g>
			<g>
				<path class="st2" d="M216.4,154.4l1.8-0.3l-15.9,32.3c0.1,0.1,0.2,0.1,0.3,0.2c0.2,0.1,0.3,0.3,0.5,0.4l16-32.4l0.8,1.6l1.5-7.5
					L216.4,154.4z"/>
			</g>
			<path class="st2" d="M218.3,159.9l1.8-0.1l-10,15.2c-1.2,2.4-2.3,4.7-3.3,6.7c0-0.1,0.1-0.1,0.2-0.2l14-21.2l0.6,1.7l2.5-7.2
				L218.3,159.9z"/>
		</g>
		<path class="st2" d="M71.8,179C72,179,71.9,179,71.8,179c-2.7-1.6-4.6-2.1-8.3-1.6C66.9,177.7,69.3,178.1,71.8,179z"/>
		<path class="st2" d="M73.4,197.7c0.4-2.6,2.1-5.6,4.6-7.7c1.7-1.4,2.7-2,1.3-0.5C77,191.9,74.5,195.6,73.4,197.7z"/>
		<path class="st2" d="M78.8,204.7c-1-2.4-0.1-6.3,0.9-8.8c0.7-1.7,2.5-4.4,3.1-4.6C80.8,194.3,78.7,202.3,78.8,204.7z"/>
		<path class="st2" d="M70.9,171.2c-0.2-0.9-1.1-1.5-2-1.3c-0.9,0.2-1.5,1.1-1.3,2c0.2,0.9,1.1,1.5,2,1.3
			C70.4,173,71,172.1,70.9,171.2z"/>
		<path class="st2" d="M85.5,173.5c0.1-2.5-0.3-5.1,0-8c-5,3.6-6.7,10-4.6,14.5c-0.2,0-0.4,0-0.6,0c-0.9,0.2-1.5,1.1-1.4,2
			c0.2,0.9,1.1,1.5,2,1.4s1.5-1.1,1.4-2c-0.1-0.5-0.4-0.9-0.8-1.1c-0.8-4-0.1-8.9,1.9-11c-0.6,2.5-1.8,7.7-1.1,12.4
			c0.8-0.9,1.4-1.8,1.9-2.7c0.1,0.8,0.3,1.5,0.6,2.3c0.1-3.8,1.4-7.6,5.3-10.2c-2.9,3.7-4.6,8-4.9,11.2c2.1-2.7,6.9-3.5,7.2-13.9
			C90,169.1,87.1,170.9,85.5,173.5z"/>
		<path class="st2" d="M88.8,184.2c-0.2-1-1.2-1.6-2.1-1.4c-1,0.2-1.6,1.2-1.4,2.1c0.2,1,1.2,1.6,2.1,1.4
			C88.3,186.2,89,185.2,88.8,184.2z"/>
		<path class="st2" d="M88.1,189.7c-0.2-1-1.2-1.6-2.1-1.4c-1,0.2-1.6,1.2-1.4,2.1c0.2,1,1.2,1.6,2.1,1.4
			C87.7,191.7,88.3,190.7,88.1,189.7z"/>
		<path class="st2" d="M77.6,162.9c-3.7,3.1-4.7,7-4.3,10.4c-0.1,0-0.3,0-0.4,0c-0.8,0.2-1.3,0.9-1.1,1.7c0.2,0.8,0.9,1.3,1.7,1.1
			c0.2,0,0.3-0.1,0.5-0.2c0.3,1,0.8,1.9,1.3,2.7c-0.3-1.1-0.6-2.4-0.7-3.7c0-0.1,0-0.3,0-0.4c0,0,0-0.1,0-0.1
			c-0.2-2.9,0.3-5.9,1.9-8c-0.5,3.2-1.3,9.3-0.5,13C76.9,175.3,82.7,173.5,77.6,162.9z"/>
		<path class="st2" d="M92.4,186.7c-0.2-0.8-0.9-1.3-1.7-1.1c-0.8,0.2-1.3,0.9-1.1,1.7c0.2,0.8,0.9,1.3,1.7,1.1
			C92,188.2,92.5,187.5,92.4,186.7z"/>
		<path class="st2" d="M84.5,186.4c-0.1-0.7-0.8-1.2-1.5-1c-0.7,0.1-1.2,0.8-1,1.5c0.1,0.7,0.8,1.2,1.5,1
			C84.2,187.8,84.7,187.1,84.5,186.4z"/>
		<path class="st2" d="M66.7,168.5c-0.1-0.6-0.6-1-1.2-1c-1.8-2.5-4.5-5.1-8.8-5.6c2.4,1.1,6,3.4,8.5,5.6c-0.6,0.2-1,0.7-0.9,1.4
			c0.1,0.7,0.7,1.1,1.4,1C66.4,169.8,66.9,169.2,66.7,168.5z"/>
		<path class="st2" d="M66.8,160.2c-0.2-0.8-1-1.4-1.8-1.2c0,0-0.1,0-0.1,0c-1-3.9-2-6.9-6.4-10c2.2,2.8,4.8,7,6.2,10
			c-0.7,0.3-1.1,1-0.9,1.7c0.2,0.8,1,1.4,1.8,1.2C66.4,161.8,67,161,66.8,160.2z"/>
		<path class="st2" d="M71.3,175.5c-0.1-0.7-0.7-1.1-1.4-1c-0.3,0.1-0.6,0.2-0.8,0.5c-3.9-3.4-6.6-3.5-8.7-3.6
			c1.2,0.4,5.7,1.7,8.5,3.7c-0.1,0.2-0.2,0.5-0.1,0.8c0.1,0.7,0.7,1.1,1.4,1C70.9,176.7,71.4,176.1,71.3,175.5z"/>
		<path class="st2" d="M74.5,180.3c-0.2-0.9-1.1-1.5-2-1.4c-0.9,0.2-1.5,1.1-1.4,2c0.2,0.9,1.1,1.5,2,1.4
			C74.1,182.2,74.7,181.3,74.5,180.3z"/>
		<path class="st2" d="M77.1,183.3c-0.1-0.7-0.7-1.1-1.4-1c-0.4,0.1-0.7,0.3-0.9,0.7c-3.4-0.5-7.1,0-10.2,1.8
			c3.5-0.8,7.1-1.5,10.1-1.6h0c0,0.2-0.1,0.3,0,0.5c0.1,0.7,0.7,1.1,1.4,1C76.7,184.6,77.2,184,77.1,183.3z"/>
		<path class="st2" d="M80.6,185.4c-0.2-0.8-1-1.4-1.9-1.2c-0.8,0.2-1.4,1-1.2,1.8c0,0-0.1,0-0.1,0c-2.5-0.1-6.7,0.6-9.3,3.6
			c2.6-1.5,6.8-3.1,9.3-3.5c0,0,0,0,0.1,0c0.2,0.8,1,1.3,1.8,1.1C80.2,187,80.7,186.2,80.6,185.4z"/>
		<g>
			<g>
				<path class="st0" d="M259.4,95.5c4.1-1.8,8.8-1,10,1.7c1.2,2.8-1.4,6.8-5.5,8.6c-4.1,1.8-8.8,1-10-1.8
					C252.7,101.3,255.3,97.3,259.4,95.5z M265.6,109.6c5.2-2.3,7.5-8.1,5.4-13.1c-2.2-5-8-7.2-13.2-4.9c-5.2,2.3-7.6,8.1-5.4,13.1
					C254.5,109.7,260.4,111.9,265.6,109.6z"/>
				<path class="st0" d="M258.3,123.1l-2-7.8l1.2-0.3l0.5,2.2l16.6-4.2l-0.6-2.2l1.2-0.3l3,11.9l0.8-0.2l0.4,1.6l-4.6,1.2l-0.4-1.5
					l2.1-0.5l-1.5-6l-6.8,1.7l1.2,4.6l2-0.5l0.4,1.5l-5.7,1.4l-0.4-1.5l2-0.5l-1.2-4.6l-7.6,1.9l0.5,1.9L258.3,123.1z"/>
			</g>
			<g>
				<path class="st0" d="M26.6,102.1l-0.7,2.4l10.7,3.2c3.2,1,4.9,2.7,5.3,5.4c0.2,1.4,0.1,2.9-0.3,4.4c-1.4,4.6-4.8,6.8-8.7,5.7
					l-11.5-3.4l-0.6,2.2l-1.2-0.4l2.4-8l1.2,0.4l-0.6,2.1l10.6,3.2c2.9,0.9,4.3,0.7,5.5-0.5c0.5-0.6,1-1.3,1.2-2.2
					c1-3.4-0.4-6-3.9-7l-10.6-3.2l-0.7,2.4l-1.2-0.4l2-6.6L26.6,102.1z"/>
				<path class="st0" d="M45.4,106.7c-0.4,1-1.6,1.5-2.6,1.1c-1-0.4-1.5-1.6-1.1-2.6s1.6-1.5,2.6-1.1
					C45.4,104.5,45.8,105.7,45.4,106.7z"/>
				<path class="st0" d="M49.1,98.3l-0.8,1.4l-4.7-2.6l0.8-1.4l1.9,1.1c1.6-0.6,2.4-1.3,3.1-2.6c0.9-1.6,0.6-3.3-0.8-4.1
					c-1.2-0.7-2.4-0.4-5.3,1.2c-3,1.6-3.5,1.8-4.6,2c-1.1,0.2-2.3,0-3.5-0.7c-2.8-1.6-3.6-4.8-1.8-7.9c0.6-1,1.2-1.7,2.1-2.5
					l-0.8-0.4l0.8-1.4l4.4,2.5l-0.8,1.4l-1.8-1c-1.3,0.7-2,1.2-2.5,2.2c-0.8,1.3-0.4,2.9,0.8,3.6c1,0.6,2,0.3,5-1.2
					c1.4-0.8,2.3-1.2,2.7-1.4c0.8-0.4,1.6-0.6,2.6-0.6c1.1,0,2.1,0.2,3.1,0.8c2.9,1.7,3.8,5,2.1,8c-0.8,1.5-1.8,2.4-3.1,3.2
					L49.1,98.3z"/>
				<path class="st0" d="M56.9,84.8c0,1.1-0.9,1.9-1.9,1.9S53,85.9,53,84.8s0.9-1.9,1.9-1.9C56,82.9,56.9,83.7,56.9,84.8z"/>
			</g>
			<g>
				<path class="st0" d="M102.8,46.6l-12.6,6.5L89.7,52l2-1l-7.8-15.2l-2,1l-0.6-1.1l10.9-5.6l-0.4-0.7l1.4-0.7l2.2,4.2L94,33.5
					l-1-1.9l-5.5,2.8l3.2,6.2l4.2-2.2L94,36.7l1.4-0.8l2.7,5.2l-1.4,0.8l-1-1.8l-4.2,2.2l3.4,6.5l5.7-3l-1-2l1.4-0.7L102.8,46.6z"/>
				<path class="st0" d="M114.9,42.3l-8.2,2.7l-0.4-1.2l2.1-0.7l-5.4-16.2l-2.1,0.7l-0.4-1.2l8.5-2.8c3.5-1.2,6.5,0.2,7.5,3.4
					c1,3.1-0.8,6.5-4.1,7.6c-0.5,0.2-0.8,0.2-1.6,0.3l-0.5-1.4c0.4,0,0.5-0.1,0.8-0.2c1.9-0.6,2.5-2.4,1.7-4.9
					c-0.9-2.6-2.4-3.7-4.4-3l-1.7,0.6l5.3,15.8l2.4-0.8L114.9,42.3z"/>
				<path class="st0" d="M124.6,31.5l1.7-7.8l4.1,6.8L124.6,31.5z M139,35.7l-1.2,0.2l-10.5-17.4l-1.8,0.3l-4.3,20l-1.8,0.3l0.2,1.2
					l6.1-1l-0.2-1.2l-2.3,0.4l1.1-5.1l7.1-1.2l2.6,4.4l-2,0.4l0.2,1.2l7.1-1.2L139,35.7z"/>
				<path class="st0" d="M147.5,19h1.9c2.1,0,3.3,1.4,3.3,3.8c0,2.3-1.4,4-3.4,4l-1.8,0L147.5,19z M159.5,35.7h-1.2
					c-0.6,0-1-0.3-1.6-1.3l-4.2-6.5c2.8-0.9,4.2-2.6,4.2-5.2c0-1.6-0.5-2.8-1.4-3.8c-1.1-1.1-2.5-1.5-5-1.5l-8.8,0v1.3h2.3l0,17.1
					l-2.3,0v1.3l8.3,0v-1.3h-2.2l0-7.5h0.8l4.4,7c1,1.6,1.3,1.8,3.1,1.8l3.8,0L159.5,35.7z"/>
				<path class="st0" d="M173,39.3l-9.4-1.6l0.2-1.2l2.8,0.5l2.8-16.4l-5.1-0.9l-0.4,2.4l-1.6-0.3l0.8-5l1.6,0.3l-0.1,0.8l13.9,2.3
					l0.1-0.8l1.6,0.3l-0.8,5l-1.6-0.3l0.4-2.4l-5-0.8l-2.8,16.4l2.8,0.5L173,39.3z"/>
				<path class="st0" d="M200.7,48.7l-8.2-3.2l0.5-1.2l2.3,0.9l4.6-12l-11.3,11L187,28.6l-4.5,11.7l2.3,0.9l-0.5,1.2l-6.4-2.5
					l0.5-1.2l2.3,0.9l6.2-15.9l-2.3-0.9l0.5-1.2l4.9,1.9l1.6,15.4l10.8-10.6l5.5,2.1l-0.5,1.2l-2.3-0.9l-6.2,15.9l2.3,0.9
					L200.7,48.7z"/>
				<path class="st0" d="M215.2,58.1l-11.9-7.6l0.7-1l1.9,1.2l9.2-14.4l-1.9-1.2l0.7-1l10.3,6.6l0.4-0.7l1.4,0.9l-2.5,4l-1.3-0.8
					l1.2-1.8l-5.2-3.3l-3.8,5.9l4,2.6l1.1-1.7l1.4,0.8l-3.1,4.9l-1.4-0.8l1.1-1.8l-4-2.6l-3.9,6.2l5.4,3.5l1.2-1.8l1.3,0.9
					L215.2,58.1z"/>
				<path class="st0" d="M83.5,46c-3.3-4.4-9.3-5.3-13.8-2l-7.5,5.5l0.7,1l1.8-1.3l10.1,13.8c0.5,0.2,1,0.4,1.4,0.5l4.9-3.6
					c2.3-1.7,3.6-3.6,4-6.2C85.7,50.9,85.1,48.2,83.5,46z M79.7,59l-1.9,1.4l-9.7-13.1l2-1.5c2.8-2.1,7.4-0.8,10,2.7
					C82.9,52.2,82.7,56.7,79.7,59z"/>
				<path class="st0" d="M240.4,54.1l-0.8,0.9l1.7,1.6l-8.4,9.2l2.1-16.6l-4.4-4l-0.8,0.9l1.6,1.4l-0.3,1.8l-10.5,11.5l-1.8-1.7
					l-0.8,0.9l5,4.5l0.8-0.9l-1.7-1.6l8.7-9.6l-1.9,15.2c1.8-0.5,3.7-1,5.8-1.6c0.2,0,0.3-0.1,0.5-0.1l7.5-8.2l1.8,1.7l0.8-0.9
					L240.4,54.1z"/>
				<path class="st0" d="M260.4,75.7l-0.7,0.5L251.2,65l0.7-0.5l-1-1.3l-4,3.1l1,1.3l2-1.5l3.1,4.1l-13.2,10.1l-0.7-0.9
					c-0.4,0.2-0.8,0.4-1.1,0.6l4.9,6.4l1-0.8l-1.7-2.3l13.2-10.1l3.1,4.1l-2,1.5l1,1.3l4-3.1L260.4,75.7z"/>
			</g>
			<g>
				<path class="st0" d="M173.6,279.5l-1.6,0.3l-1.1-5.2l1.6-0.3l0.5,2.1c1.5,0.8,2.6,0.9,4,0.6c1.8-0.4,2.9-1.8,2.5-3.3
					c-0.3-1.3-1.3-2-4.4-3.2c-3.2-1.2-3.6-1.4-4.6-2.1c-0.9-0.7-1.5-1.8-1.8-3c-0.7-3.2,1.2-5.8,4.7-6.6c1.1-0.3,2.1-0.3,3.3,0
					l-0.2-0.9l1.6-0.3l1.1,5l-1.6,0.3l-0.4-2c-1.4-0.5-2.2-0.6-3.3-0.4c-1.5,0.3-2.4,1.7-2.1,3c0.3,1.2,1.1,1.7,4.3,2.9
					c1.5,0.6,2.5,0.9,2.8,1.1c0.8,0.3,1.5,0.8,2.2,1.5c0.8,0.8,1.2,1.7,1.5,2.8c0.7,3.3-1.2,6.1-4.6,6.9c-1.7,0.4-3,0.3-4.5-0.2
					L173.6,279.5z"/>
				<path class="st0" d="M203.8,270l-13.1,5.2l-0.5-1.2l2.1-0.8l-6.2-15.9l-2.1,0.8l-0.5-1.2l11.4-4.5l-0.3-0.8l1.5-0.6l1.7,4.4
					l-1.5,0.6l-0.8-2l-5.8,2.3l2.6,6.5l4.4-1.7l-0.7-1.9l1.5-0.6l2.1,5.4l-1.5,0.6l-0.8-1.9l-4.4,1.7l2.7,6.8l6-2.3l-0.8-2l1.5-0.6
					L203.8,270z"/>
				<path class="st0" d="M223.6,257.9c-1.7,2.1-2.8,3.2-4.8,4.4c-5.4,3.3-11.4,2-14.4-3.1c-3-5-1.5-11,3.6-14.1
					c1.6-1,2.9-1.5,4.8-1.7l-0.6-1.1l1.4-0.8l2.8,4.5l-1.4,0.8l-1-1.6c-2.1-0.1-3.1,0.1-4.4,0.9c-3.5,2.1-4.2,6.6-1.6,10.8
					c2.5,4.1,7.2,5.7,10.7,3.5c1.3-0.8,2-1.6,2.8-3.1l-1.2-1.9l1.4-0.9L223.6,257.9z"/>
				<path class="st0" d="M232.5,227.3l-1.8,1.7l7.5,8.2c2.3,2.5,2.8,4.8,1.8,7.4c-0.6,1.3-1.4,2.5-2.6,3.6
					c-3.6,3.3-7.6,3.4-10.4,0.4l-8.1-8.9l-1.7,1.5l-0.8-0.9l6.1-5.6l0.8,0.9l-1.6,1.5l7.5,8.2c2,2.2,3.3,2.9,5,2.4
					c0.8-0.2,1.5-0.6,2.2-1.3c2.6-2.4,2.7-5.4,0.3-8l-7.4-8.2l-1.8,1.7l-0.9-0.9l5.1-4.6L232.5,227.3z"/>
				<path class="st0" d="M265.9,210l-4,7.3l-1.1-0.6l1.1-2l-15-8.1l-1.1,2l-1.1-0.6l4-7.3l1.1,0.6l-1.1,2l15,8.1l1.1-2L265.9,210z"
					/>
				<path class="st0" d="M273.4,192.2l-3.4,8.9l-1.2-0.4l1-2.7l-15.5-5.9l-1.8,4.8l2.3,0.9l-0.6,1.5l-4.7-1.8l0.6-1.5l0.8,0.3
					l5-13.2l-0.8-0.3l0.6-1.5l4.7,1.8l-0.6,1.5l-2.3-0.9l-1.8,4.8l15.5,5.9l1-2.7L273.4,192.2z"/>
				<path class="st0" d="M278.7,170.4l-1.6,8.2l-1.2-0.2l0.4-2.2l-8-1.6l-9.9,4.1l-0.4,1.8l-1.2-0.2l1.6-8.2l1.2,0.2l-0.4,2.2
					l7.2-2.9l-5.6-5.1l-0.5,2.5l-1.2-0.2l1.3-6.8l1.2,0.2l-0.4,2.1l7,6.4l8.8,1.7l0.4-2.2L278.7,170.4z"/>
				<path class="st0" d="M258.7,220.7l-0.7,1c-0.4,0.5-0.8,0.6-2,0.5l-7.7-0.5c1-2.8,0.4-4.9-1.7-6.5c-1.3-0.9-2.6-1.3-3.9-1.1
					c-1.5,0.2-2.7,1.1-4.2,3.2l-5.2,7l1,0.7l1.3-1.8l13.7,10.2l-1.3,1.8l1,0.7l5-6.7l-1-0.7l-1.3,1.8l-6-4.5l0.5-0.6l8.3,0.6
					c1.9,0.1,2.2,0,3.2-1.4l2.3-3L258.7,220.7z M238.1,220.4l1.1-1.5c1.3-1.7,3.1-1.9,5-0.4c1.9,1.4,2.4,3.5,1.1,5.1l-1,1.4
					L238.1,220.4z"/>
			</g>
			<g>
				<path class="st0" d="M23.5,188.7l-2-8.1l1.2-0.3l0.5,2.2l7.6-1.8l-2.3-9.4l-7.6,1.8l0.5,2.2l-1.2,0.3l-2-8.1l1.2-0.3l0.5,2.2
					l16.6-4.1l-0.5-2.2l1.2-0.3l2,8.1l-1.2,0.3l-0.5-2.2l-7.3,1.8l2.3,9.4l7.3-1.8l-0.5-2.2l1.2-0.3l2,8.1l-1.2,0.3l-0.5-2.2
					l-16.6,4.1l0.5,2.2L23.5,188.7z"/>
				<path class="st0" d="M34.8,193.3c4.1-1.9,8.8-1.1,10,1.6c1.2,2.7-1.3,6.8-5.4,8.6c-4.1,1.9-8.8,1.1-10.1-1.6
					C28.2,199.2,30.7,195.1,34.8,193.3z M41.2,207.3c5.2-2.3,7.4-8.2,5.2-13.1s-8.1-7.1-13.3-4.7c-5.2,2.3-7.5,8.2-5.2,13.1
					C30.1,207.6,36,209.7,41.2,207.3z"/>
				<path class="st0" d="M48.7,235.5l-5.2-7.1l1-0.7l1.5,2l10.4-7.5L41,225.3l7.2-14.1L38,218.6l1.5,2l-1,0.7l-4-5.6l1-0.7l1.5,2
					l13.8-10l-1.5-2l1-0.7l3.1,4.2l-7,13.8l14.8-3.1l3.5,4.8l-1,0.7l-1.5-2l-13.8,10l1.5,2L48.7,235.5z"/>
				<path class="st0" d="M64.2,250.7l-10.4-9.6l0.8-0.9l1.7,1.5l11.6-12.6l-1.7-1.5l0.8-0.9l9,8.3l0.6-0.6l1.2,1.1l-3.2,3.5
					l-1.2-1.1l1.4-1.6l-4.5-4.2l-4.7,5.1l3.5,3.2l1.4-1.5l1.2,1.1l-4,4.3l-1.2-1.1l1.4-1.5l-3.5-3.2l-5,5.4l4.7,4.4l1.5-1.6l1.2,1.1
					L64.2,250.7z"/>
				<path class="st0" d="M81.9,262.8L70.2,255l0.7-1l1.9,1.3l9.5-14.2l-1.9-1.3l0.7-1l6.9,4.6l-0.7,1l-1.8-1.2l-9.3,13.8l5.2,3.5
					l1.2-1.8l1.3,0.9L81.9,262.8z"/>
				<path class="st0" d="M93.7,260.3l5.8-5.5l-0.5,7.9L93.7,260.3z M103.3,271.9l-1.1-0.5l1.2-20.3l-1.6-0.8l-14.8,14.1l-1.7-0.8
					l-0.5,1.1l5.6,2.6l0.5-1.1l-2.2-1l3.7-3.6l6.6,3l-0.3,5.1l-1.9-0.9l-0.5,1.1l6.6,3L103.3,271.9z"/>
				<path class="st0" d="M123.8,278.9l-2-0.5l-6.7-16.6l-3,12.6l2.3,0.5l-0.3,1.2l-6.5-1.6l0.3-1.2l2.4,0.6l3.6-15.1l-0.6-1.7
					l-2.1-0.5l0.3-1.2l5.7,1.4l6.2,15.5l2.9-12.1l-2.3-0.5l0.3-1.2l6.5,1.6l-0.3,1.2l-2.4-0.6L123.8,278.9z"/>
				<path class="st0" d="M143.1,260.8l-9.3-0.3l0,1.3l2.3,0.1l-0.6,17.1l0,0l-2.3-0.1l0,1.3l9.2,0.3h0h0c2.9,0.1,5-0.6,7-2.3
					c2.1-1.9,3.3-4.4,3.4-7.1C152.9,265.4,148.7,261,143.1,260.8z M148.5,270.8c-0.2,4.7-3.1,8.1-6.9,7.9l-2.4-0.1l0.6-16.3l2.5,0.1
					C145.8,262.6,148.7,266.4,148.5,270.8z"/>
			</g>
		</g>
		<path class="st2" d="M74.2,154.5c-5.7,2.5-8.3,9.5-5.4,14.7C71.4,165.5,76.4,164.7,74.2,154.5z M68.8,169
			c-0.7-2.8,1.1-10.4,3.6-12C70.8,160.7,70.1,164.1,68.8,169z"/>
		<path class="st2" d="M68.4,143.9c-1.8,0.7-4.4,3.3-5.5,6.6c0.5,0.5,0.8,1.1,1.2,1.6c0.6-2.4,2-5.3,3.4-6.5c-0.9,1.5-2.2,5-2.8,7.7
			c0.6,1.5,0.9,3.1,0.9,4.5C68.9,154.7,70.2,149.2,68.4,143.9z"/>
	</g>
</g>
</svg>
